<mxfile host="Electron" agent="Mozilla/5.0 (Windows NT 10.0; Win64; x64) AppleWebKit/537.36 (KHTML, like Gecko) draw.io/28.1.2 Chrome/138.0.7204.243 Electron/37.4.0 Safari/537.36" version="28.1.2">
  <diagram id="taskManagerUseCase" name="Page-1">
    <mxGraphModel dx="872" dy="529" grid="1" gridSize="10" guides="1" tooltips="1" connect="1" arrows="1" fold="1" page="1" pageScale="1" pageWidth="827" pageHeight="1169" math="0" shadow="0">
      <root>
        <mxCell id="0" />
        <mxCell id="1" parent="0" />
        <mxCell id="2" value="" style="shape=rectangle;whiteSpace=wrap;html=1;strokeWidth=2;rounded=1;" parent="1" vertex="1">
          <mxGeometry x="240" y="120" width="320" height="360" as="geometry" />
        </mxCell>
        <mxCell id="3" value="Create Note" style="ellipse;whiteSpace=wrap;html=1;" parent="2" vertex="1">
          <mxGeometry x="90" y="20" width="140" height="40" as="geometry" />
        </mxCell>
        <mxCell id="4" value="View Notes" style="ellipse;whiteSpace=wrap;html=1;" parent="2" vertex="1">
          <mxGeometry x="90" y="80" width="140" height="40" as="geometry" />
        </mxCell>
        <mxCell id="5" value="Edit Note" style="ellipse;whiteSpace=wrap;html=1;" parent="2" vertex="1">
          <mxGeometry x="90" y="140" width="140" height="40" as="geometry" />
        </mxCell>
        <mxCell id="6" value="Delete Note" style="ellipse;whiteSpace=wrap;html=1;" parent="2" vertex="1">
          <mxGeometry x="90" y="200" width="140" height="40" as="geometry" />
        </mxCell>
        <mxCell id="12" value="Save Note" style="ellipse;whiteSpace=wrap;html=1;" parent="2" vertex="1">
          <mxGeometry x="90" y="260" width="140" height="40" as="geometry" />
        </mxCell>
        <mxCell id="7" value="User" style="shape=actor;verticalLabelPosition=bottom;verticalAlign=top;" parent="1" vertex="1">
          <mxGeometry x="60" y="230" width="40" height="50" as="geometry" />
        </mxCell>
        <mxCell id="8" style="entryX=0;entryY=0.5;entryDx=0;entryDy=0;" parent="1" source="7" target="3" edge="1">
          <mxGeometry relative="1" as="geometry" />
        </mxCell>
        <mxCell id="9" style="entryX=0;entryY=0.5;entryDx=0;entryDy=0;" parent="1" source="7" target="4" edge="1">
          <mxGeometry relative="1" as="geometry" />
        </mxCell>
        <mxCell id="10" style="entryX=0;entryY=0.5;entryDx=0;entryDy=0;" parent="1" source="7" target="5" edge="1">
          <mxGeometry relative="1" as="geometry" />
        </mxCell>
        <mxCell id="11" style="entryX=0;entryY=0.5;entryDx=0;entryDy=0;" parent="1" source="7" target="6" edge="1">
          <mxGeometry relative="1" as="geometry">
            <mxPoint x="353" y="325" as="targetPoint" />
          </mxGeometry>
        </mxCell>
        <mxCell id="EWcfi9fys9eqP0RbF7S6-14" value="" style="endArrow=classic;html=1;rounded=0;exitX=1;exitY=0.75;exitDx=0;exitDy=0;entryX=0;entryY=0.5;entryDx=0;entryDy=0;" edge="1" parent="1" source="7" target="12">
          <mxGeometry width="50" height="50" relative="1" as="geometry">
            <mxPoint x="390" y="300" as="sourcePoint" />
            <mxPoint x="440" y="250" as="targetPoint" />
          </mxGeometry>
        </mxCell>
      </root>
    </mxGraphModel>
  </diagram>
</mxfile>
